<mxfile host="app.diagrams.net" modified="2024-06-18T08:36:39.904Z" agent="Mozilla/5.0 (X11; Linux x86_64) AppleWebKit/537.36 (KHTML, like Gecko) Chrome/124.0.0.0 Safari/537.36" version="24.5.4" etag="O7f-MaEIINN0mddnZuJC" type="github">
  <diagram name="第 1 页" id="Oy5AewGcudV85vpddlLU">
    <mxGraphModel>
      <root>
        <mxCell id="0" />
        <mxCell id="1" parent="0" />
      </root>
    </mxGraphModel>
  </diagram>
</mxfile>
